# xmcd CD database file
#
# Track frame offsets:
#	150
#	43032
#	81002
#	115359
#	149733
#	171844
#
# Disc length: 2966 seconds
#
# Revision: 0
# Processed by: cddbd v1.5.1PL2 Copyright (c) Steve Scherf et al.
# Submitted via: CDex 1.51
#
DISCID=520b9406
DTITLE=VV.AA. - Jazz Ensemble
DYEAR=2005
DGENRE=Jazz
TTITLE0=Autumn leaves
TTITLE1=Skylark
TTITLE2=A night in Tunisia
TTITLE3=Everything happens to me
TTITLE4=Here comes the sun
TTITLE5=CDJ blues
EXTD=YEAR: 2005
EXTT0=
EXTT1=
EXTT2=
EXTT3=
EXTT4=
EXTT5=
PLAYORDER=
